<svg width="19" height="26" viewBox="0 0 19 26" fill="none" xmlns="http://www.w3.org/2000/svg">
<path d="M11.6711 26C10.86 26 10.0447 26 9.23352 26C9.23352 24.6996 9.23352 23.4033 9.23352 22.0655C8.61151 22.0655 8.01051 22.0655 7.41372 22.0655C7.27082 22.0655 7.30024 22.1818 7.30024 22.2649C7.30024 23.5113 7.30024 24.7577 7.30024 26C6.4891 26 5.67376 26 4.86262 26C4.86262 24.6747 4.86262 23.3493 4.86262 21.9949C3.22354 21.9949 1.61387 21.9949 0.0168111 21.9949C0.00420279 21.9533 0 21.9367 0 21.9284C0.1513 21.0435 0.302601 20.1544 0.449698 19.2694C0.470712 19.1365 0.550565 19.1448 0.643026 19.1448C1.13896 19.1448 1.63909 19.1448 2.13502 19.1448C2.82007 19.1406 3.14368 18.8124 3.14368 18.131C3.14368 14.6826 3.14368 11.2343 3.14368 7.79003C3.14368 7.04219 2.68138 6.55193 1.92488 6.51039C1.52561 6.48961 1.12635 6.48961 0.727082 6.48546C0.48332 6.4813 0.243762 6.48546 0 6.48546C0 5.62544 0 4.79035 0 3.93033C1.62648 3.93033 3.24035 3.93033 4.86262 3.93033C4.86262 2.60083 4.86262 1.30042 4.86262 0C5.67376 0 6.4891 0 7.30024 0C7.30024 1.22563 7.30024 2.45126 7.29183 3.67689C7.29183 3.82231 7.33807 3.86801 7.48516 3.86385C7.90544 3.84724 8.32572 3.84724 8.746 3.84308C8.9015 3.84308 9.06121 3.84308 9.23352 3.84308C9.23352 2.53436 9.23352 1.26718 9.23352 0C10.0447 0 10.86 0 11.6711 0C11.6669 0.0830936 11.6627 0.166187 11.6627 0.249281C11.6627 1.35858 11.6627 2.46373 11.6627 3.57303C11.6627 3.95526 11.6627 3.9511 12.0578 3.99265C13.1379 4.10898 14.2012 4.3001 15.2015 4.76127C16.1429 5.19335 16.8784 5.82486 17.265 6.80537C17.5424 7.51166 17.6097 8.24289 17.555 8.98658C17.4626 10.2579 16.8658 11.226 15.752 11.8741C15.6764 11.9198 15.6007 11.9613 15.4957 12.0195C15.5629 12.0527 15.5923 12.0652 15.626 12.0777C16.042 12.2314 16.4791 12.3519 16.8784 12.5513C17.8492 13.0374 18.5469 13.7686 18.8201 14.8405C19.0975 15.9124 19.0344 16.9843 18.7654 18.0438C18.5301 18.962 18.0888 19.768 17.3491 20.3912C16.5127 21.0975 15.5083 21.4714 14.4534 21.6791C13.6128 21.8412 12.7513 21.9076 11.8939 21.999C11.709 22.0198 11.6585 22.078 11.6627 22.2525C11.6753 22.5724 11.6669 22.8881 11.6669 23.2081C11.6669 24.1304 11.6669 25.0652 11.6711 26ZM7.34647 19.1448C8.09877 19.1448 8.81324 19.1614 9.52351 19.1406C10.4902 19.1115 11.4526 19.0077 12.3688 18.6753C12.9446 18.4676 13.4909 18.1892 13.8188 17.6449C14.4618 16.5855 14.1256 15.2435 13.0454 14.6162C12.2595 14.1592 11.3853 13.9556 10.4817 13.914C9.52351 13.8725 8.56528 13.8849 7.60704 13.86C7.3969 13.8559 7.33807 13.914 7.33807 14.1259C7.34647 15.7172 7.34227 17.3084 7.34227 18.8996C7.34647 18.9744 7.34647 19.0492 7.34647 19.1448ZM7.35067 9.0489C7.35067 9.78843 7.35067 10.5321 7.35067 11.2717C7.35067 11.388 7.35488 11.4669 7.51458 11.4711C8.7418 11.4918 9.96481 11.4877 11.1626 11.1719C11.7846 11.0058 12.3268 10.7066 12.705 10.1956C13.2808 9.41451 13.0875 8.1224 12.3268 7.49505C11.709 6.98817 10.9567 6.7929 10.1876 6.73058C9.30917 6.65996 8.42659 6.68073 7.544 6.65165C7.37169 6.64749 7.35067 6.72643 7.35067 6.86769C7.35067 7.59476 7.34647 8.32183 7.35067 9.0489Z" fill="white"/>
</svg>
