<svg width="108" height="110" viewBox="0 0 108 110" fill="none" xmlns="http://www.w3.org/2000/svg">
<g filter="url(#filter0_d_1_2)">
<circle cx="54" cy="44" r="44" fill="#AA5E69" fill-opacity="0.4"/>
<circle cx="54" cy="44" r="35" fill="#BC5661"/>
<path d="M32.014 43.4862C32.014 39.5367 32.028 35.6013 32 31.6519C32 30.9236 32.2517 30.5034 32.8669 30.1533C39.6759 26.1899 46.4709 22.2124 53.252 18.221C53.8532 17.8708 54.3146 17.9689 54.8599 18.291C61.2774 22.0724 67.7229 25.8257 74.1404 29.6071C76.1398 30.7836 75.986 30.1813 75.986 32.8563C75.986 40.321 75.972 47.7858 76 55.2645C76 56.0628 75.7483 56.539 75.0492 56.9451C68.3381 60.8385 61.6549 64.76 54.9717 68.6954C54.2726 69.1015 53.7413 69.1015 53.0562 68.6954C46.3731 64.76 39.6759 60.8525 32.9787 56.9591C32.2796 56.553 32.014 56.0768 32.028 55.2785C32.028 51.3291 32.014 47.4076 32.014 43.4862ZM69.6384 44.4245C69.6524 44.6906 69.7083 44.8867 69.6663 45.0548C69.3028 46.4973 69.0372 47.9818 68.5059 49.3683C67.2615 52.6315 64.8846 54.9844 61.9765 56.8051C57.9917 59.298 53.965 61.7349 49.9523 64.1998C49.7286 64.3398 49.5189 64.4939 49.2533 64.6759C49.421 64.83 49.4909 64.914 49.5888 64.97C50.6374 65.6283 51.686 66.2725 52.7347 66.9167C53.6714 67.491 54.5942 67.3649 55.489 66.7907C56.4118 66.2025 57.3486 65.6423 58.2714 65.0541C58.4252 64.956 58.551 64.844 58.7747 64.6899C57.5863 63.9337 56.4677 63.2054 55.2513 62.4211C57.013 61.4127 58.6349 60.4464 60.2847 59.5501C60.4944 59.438 60.9279 59.5501 61.1656 59.7041C61.9625 60.2223 62.7315 60.7965 63.5005 61.3707C63.836 61.6228 64.1017 61.6788 64.4932 61.4547C67.5551 59.6341 70.6311 57.8274 73.721 56.0488C74.2942 55.7127 74.5319 55.2785 74.518 54.6343C74.49 53.0657 74.518 51.5111 74.504 49.9425C74.504 44.1584 74.504 38.3603 74.504 32.5762C74.504 32.016 74.448 31.5118 73.9028 31.1897C70.7709 29.355 67.639 27.4923 64.4932 25.6857C64.2275 25.5316 63.6962 25.5596 63.4306 25.7137C59.3759 28.2066 55.3632 30.7275 51.3225 33.2344C49.2253 34.5369 47.17 35.9234 45.5342 37.8141C42.6959 41.0773 42.5561 45.3489 45.1706 48.7941C46.2612 50.2226 47.6314 51.3431 49.0995 52.3374C50.2739 53.1217 51.4623 53.892 52.7347 54.7323C51.1268 55.6706 49.5888 56.539 48.0788 57.4493C47.5894 57.7434 47.17 57.7714 46.7506 57.3933C45.2405 56.1188 43.5907 54.9704 42.2485 53.5279C38.4735 49.4944 37.4388 44.6626 38.8789 39.3827C39.9975 35.2652 42.6959 32.2821 46.2332 30.0413C49.9523 27.6884 53.7274 25.4196 57.4744 23.1228C57.8519 22.8987 58.2154 22.6606 58.6629 22.3665C58.4112 22.1704 58.2434 22.0164 58.0477 21.9043C56.9431 21.2601 55.8246 20.6438 54.734 19.9716C54.2307 19.6635 53.7973 19.6635 53.2939 19.9576C52.0775 20.6859 50.8472 21.4001 49.6168 22.1144C49.5189 22.1704 49.3931 22.1984 49.1833 22.2684C50.4836 23.1087 51.5742 23.809 52.7486 24.5653C51.0149 25.5877 49.4071 26.568 47.7572 27.4783C47.5475 27.5904 47.1141 27.4923 46.8764 27.3383C46.1493 26.8761 45.4503 26.3579 44.7792 25.8257C44.3178 25.4476 43.9123 25.4056 43.381 25.7137C40.3051 27.5204 37.2291 29.313 34.1532 31.1057C33.6778 31.3858 33.4681 31.7359 33.4681 32.2961C33.482 39.7888 33.482 47.2816 33.4681 54.7743C33.4681 55.3625 33.6918 55.7267 34.1811 56.0208C37.2431 57.7994 40.2911 59.5921 43.3391 61.3847C43.8004 61.6648 44.1919 61.6228 44.6254 61.3287C45.5481 60.6985 46.4989 60.0963 47.4357 59.494C51.5602 56.8751 55.6988 54.2561 59.8233 51.6232C60.3826 51.259 60.8719 50.7969 61.4032 50.3627C61.3613 50.2787 61.3193 50.2086 61.2914 50.1246C57.754 50.1246 54.2167 50.1246 50.5675 50.1246C51.5462 48.416 52.483 46.8614 53.3499 45.2648C53.6854 44.6486 54.0909 44.4245 54.79 44.4385C59.4458 44.4665 64.1157 44.4525 68.7715 44.4525C69.0512 44.4245 69.3308 44.4245 69.6384 44.4245Z" fill="white"/>
<path d="M69.4719 41.3855C67.9199 41.3855 66.4099 41.4135 64.9139 41.3575C64.7042 41.3575 64.3826 41.0494 64.2987 40.8113C63.4878 38.6545 62.0616 37.0019 60.2301 35.6854C58.6362 34.523 56.9724 33.4446 55.2666 32.2682C55.7 32.0021 56.0915 31.75 56.497 31.5119C57.6155 30.8537 58.734 30.1674 59.8805 29.5652C60.2021 29.3971 60.7614 29.3271 61.027 29.4952C63.8513 31.3298 66.326 33.5286 67.9758 36.5257C68.8707 38.1083 69.4439 39.943 69.4719 41.3855Z" fill="white"/>
</g>
<defs>
<filter id="filter0_d_1_2" x="0" y="0" width="108" height="110" filterUnits="userSpaceOnUse" color-interpolation-filters="sRGB">
<feFlood flood-opacity="0" result="BackgroundImageFix"/>
<feColorMatrix in="SourceAlpha" type="matrix" values="0 0 0 0 0 0 0 0 0 0 0 0 0 0 0 0 0 0 127 0" result="hardAlpha"/>
<feOffset dy="12"/>
<feGaussianBlur stdDeviation="5"/>
<feColorMatrix type="matrix" values="0 0 0 0 0.0973605 0 0 0 0 0.0434774 0 0 0 0 0.165939 0 0 0 0.25 0"/>
<feBlend mode="normal" in2="BackgroundImageFix" result="effect1_dropShadow_1_2"/>
<feBlend mode="normal" in="SourceGraphic" in2="effect1_dropShadow_1_2" result="shape"/>
</filter>
</defs>
</svg>
