<svg width="20" height="32" viewBox="0 0 20 32" fill="none" xmlns="http://www.w3.org/2000/svg">
<path d="M10.3636 0.00625243C11.1733 1.35678 11.9768 2.7073 12.7866 4.05158C15.059 7.82804 17.3377 11.5983 19.6163 15.3747C19.6603 15.4435 19.6979 15.5185 19.7733 15.6498C19.6352 15.5936 19.541 15.5623 19.4531 15.5248C16.4965 14.2368 13.5399 12.9425 10.5833 11.6608C10.3636 11.567 10.3008 11.4545 10.3008 11.2231C10.3071 7.53418 10.3071 3.84525 10.3071 0.156311C10.3071 0.106291 10.3008 0.0500195 10.3008 0C10.3259 0.00625243 10.3447 0.00625243 10.3636 0.00625243Z" fill="white"/>
<path d="M9.67339 0.00585938C9.67339 3.74481 9.67339 7.48377 9.67967 11.229C9.67967 11.4541 9.62318 11.5729 9.40347 11.6666C6.47196 12.9359 3.54672 14.2176 0.621488 15.4931C0.558714 15.5244 0.489664 15.5431 0.351562 15.5994C0.433168 15.4494 0.477109 15.3493 0.533605 15.2555C3.51534 10.2661 6.49707 5.27666 9.4788 0.280966C9.52902 0.193432 9.56668 0.0933934 9.61062 0.00585938C9.63573 0.00585938 9.65456 0.00585938 9.67339 0.00585938Z" fill="white"/>
<path d="M10.3203 22.0958C10.3203 18.782 10.3203 15.537 10.3203 12.2295C13.5469 13.6363 16.742 15.0306 20 16.4499C16.7483 18.3444 13.5531 20.2076 10.3203 22.0958Z" fill="white"/>
<path d="M9.64825 22.0773C6.43426 20.2015 3.25166 18.3446 0 16.4501C3.24538 15.0308 6.44054 13.6427 9.64825 12.2422C9.64825 15.5372 9.64825 18.7947 9.64825 22.0773Z" fill="white"/>
<path d="M19.824 18.6254C16.6791 23.0584 13.5279 27.4976 10.339 31.9868C10.3202 31.8493 10.3076 31.7743 10.3076 31.6992C10.3076 29.242 10.3076 26.7848 10.3139 24.3276C10.3139 24.2213 10.3892 24.065 10.4771 24.0087C13.5467 22.208 16.6226 20.4136 19.6985 18.6254C19.7236 18.6129 19.755 18.6004 19.7801 18.5879C19.7989 18.6004 19.8115 18.6129 19.824 18.6254Z" fill="white"/>
<path d="M0.219164 18.582C1.60645 19.3948 2.99374 20.2014 4.38103 21.008C6.06963 21.9896 7.75196 22.9712 9.44056 23.9529C9.57866 24.0342 9.68538 24.0967 9.68538 24.303C9.6791 26.7915 9.6791 29.2799 9.6791 31.7684C9.6791 31.8184 9.67282 31.8622 9.66027 31.9997C6.46511 27.498 3.31389 23.0588 0.168945 18.6258C0.1815 18.607 0.200332 18.5945 0.219164 18.582Z" fill="white"/>
</svg>
